<svg id="Capa_1" enable-background="new 0 0 511.988 511.988" height="512" viewBox="0 0 511.988 511.988" width="512" xmlns="http://www.w3.org/2000/svg"><g><g><path d="m308.699 304.824v-244.619c0-29.108-23.597-52.705-52.705-52.705-29.108 0-52.705 23.597-52.705 52.705v244.624c0 8.079-3.729 15.673-10.037 20.723-23.227 18.595-38.021 47.285-37.723 79.422.504 54.299 44.738 98.75 99.034 99.505 56.143.781 101.9-44.496 101.9-100.46 0-31.718-14.7-59.999-37.657-78.411-6.328-5.075-10.107-12.671-10.107-20.784z" fill="#d7effa"/></g><g><path d="m255.009 472.481c-36.867-.513-67.139-30.93-67.48-67.805-.226-24.196 11.951-46.242 32.572-58.973l2.644-1.633c7.797-4.814 12.544-13.324 12.544-22.488v-260.869c0-11.213 8.702-20.775 19.907-21.198 11.779-.445 21.504 9.008 21.504 20.69v261.378c0 9.164 4.747 17.673 12.544 22.488l2.644 1.633c21.408 13.217 33.762 36.577 32.485 61.886-.79 15.661-7.014 30.671-17.537 42.296-13.164 14.542-31.38 22.603-50.837 22.603-.002-.001-.662-.003-.99-.008z" fill="#f26e91"/></g><g><path d="m291.888 345.703-2.644-1.633c-7.797-4.815-12.544-13.324-12.544-22.488v-261.377c0-11.682-9.724-21.135-21.503-20.69-7.721.292-14.252 4.925-17.568 11.445 7.649 3.045 13.071 10.522 13.071 19.245v261.378c0 9.164 4.747 17.673 12.544 22.488l2.644 1.633c21.408 13.217 33.762 36.577 32.485 61.886-.79 15.661-7.014 30.671-17.537 42.296-4.122 4.554-8.74 8.471-13.737 11.705 15.199-2.464 29.114-9.971 39.737-21.705 10.523-11.626 16.747-26.635 17.537-42.296 1.277-25.31-11.077-48.67-32.485-61.887z" fill="#e05c7e"/></g><g><path d="m276.699 99.843v-39.638c0-11.682-9.724-21.135-21.504-20.69-11.205.424-19.907 9.986-19.907 21.198v39.129h41.411z" fill="#766d78"/></g><g><path d="m255.196 39.515c-4.163.157-7.978 1.581-11.132 3.877 5.226 3.762 8.635 9.896 8.635 16.813v39.638h24v-39.638c0-11.682-9.724-21.135-21.503-20.69z" fill="#655e67"/></g><g><path d="m203.289 273.488c4.142 0 7.5-3.358 7.5-7.5v-205.783c0-24.926 20.279-45.205 45.206-45.205 24.925 0 45.205 20.279 45.205 45.205v30.2c0 4.142 3.357 7.5 7.5 7.5s7.5-3.358 7.5-7.5v-30.2c0-33.197-27.008-60.205-60.205-60.205s-60.206 27.008-60.206 60.205v205.783c0 4.142 3.358 7.5 7.5 7.5z"/><path d="m323.499 319.757c-4.64-3.72-7.3-9.163-7.3-14.933v-184.419c0-4.142-3.357-7.5-7.5-7.5s-7.5 3.358-7.5 7.5v184.419c0 10.345 4.708 20.053 12.915 26.634 22.147 17.763 34.849 44.21 34.849 72.561 0 25.078-9.835 48.587-27.692 66.198-17.854 17.607-41.522 27.087-66.604 26.762-50.064-.697-91.173-42.003-91.639-92.076-.267-28.733 12.458-55.522 34.911-73.497 8.165-6.538 12.849-16.225 12.849-26.578v-8.841c0-4.142-3.358-7.5-7.5-7.5s-7.5 3.358-7.5 7.5v8.841c0 5.773-2.633 11.192-7.224 14.868-26.071 20.872-40.846 51.979-40.536 85.347.262 28.232 11.46 54.886 31.529 75.052 20.07 20.166 46.67 31.49 74.9 31.882.518.008 1.033.011 1.55.011 28.564 0 55.43-11.006 75.796-31.091 20.738-20.452 32.159-47.754 32.159-76.878.001-32.924-14.747-63.637-40.463-84.262z"/><path d="m275.549 39.892c-5.575-5.368-12.907-8.165-20.637-7.871-15.209.575-27.123 13.178-27.123 28.693v260.869c0 6.612-3.359 12.633-8.985 16.106l-2.643 1.632c-22.875 14.123-36.382 38.581-36.132 65.424.379 40.915 33.968 74.665 74.875 75.235.367.006 1.093.008 1.094.008 21.735 0 41.764-8.903 56.398-25.069 11.677-12.9 18.591-29.574 19.467-46.952 1.401-27.754-12.406-54.058-36.034-68.646l-2.645-1.633c-5.626-3.473-8.984-9.494-8.984-16.106v-261.377c0-7.727-3.073-14.941-8.651-20.313zm-20.07 7.118c.172-.006.344-.01.515-.01 3.431 0 6.663 1.302 9.151 3.697 2.614 2.518 4.055 5.895 4.055 9.508v32.138h-26.41v-31.63c-.001-7.292 5.692-13.439 12.689-13.703zm29.824 303.442 2.645 1.633c19.26 11.891 30.076 32.499 28.935 55.126-.703 13.931-6.246 27.299-15.607 37.641-11.753 12.985-27.833 20.136-45.255 20.136-.021 0-.606-.001-.899-.006-.002 0-.005 0-.007 0-32.827-.457-59.781-27.541-60.085-60.375-.201-21.547 10.645-41.182 29.014-52.522l2.643-1.632c10.084-6.226 16.104-17.018 16.104-28.87v-214.24h26.41v16.589h-5.705c-4.143 0-7.5 3.358-7.5 7.5s3.357 7.5 7.5 7.5h5.705v20.991h-5.705c-4.143 0-7.5 3.358-7.5 7.5s3.357 7.5 7.5 7.5h5.705v20.991h-5.705c-4.143 0-7.5 3.358-7.5 7.5s3.357 7.5 7.5 7.5h5.705v20.991h-5.705c-4.143 0-7.5 3.358-7.5 7.5s3.357 7.5 7.5 7.5h5.705v20.991h-5.705c-4.143 0-7.5 3.358-7.5 7.5s3.357 7.5 7.5 7.5h5.705v38.687c-.001 11.851 6.019 22.643 16.102 28.869z"/></g></g></svg>